PathFileType	4	(X/Y/Z)	Patient4_TMGait_0pt7_01_left_13.trc.trc
DataRate	CameraRate	NumFrames	NumMarkers	Units	OrigDataRate	OrigDataStartFrame	OrigNumFrames
87.500000000000	87.500000000000	4	33	mm	87.500000000000	18	       141
Frame#	Time	Sacral			L.Shoulder			Chest			R.Shoulder			Neck			R.ASIS			L.ASIS			R.Thigh.Superior			R.Thigh.Lateral			R.Thigh.Inferior			R.Patella			L.Thigh.Superior			L.Thigh.Lateral			L.Thigh.Inferior			L.Patella			L.Shank.Superior			L.Shank.Lateral			L.Shank.Inferior			R.Shank.Superior			R.Shank.Lateral			R.Shank.Inferior			R.Heel			R.Midfoot.Superior			R.Midfoot.Lateral			R.Toe			L.Heel			L.Midfoot.Lateral			L.Midfoot.Superior			L.Toe			L.Elbow			L.Wrist			R.Elbow			R.Wrist			
		X1	Y1	Z1	X2	Y2	Z2	X3	Y3	Z3	X4	Y4	Z4	X5	Y5	Z5	X6	Y6	Z6	X7	Y7	Z7	X8	Y8	Z8	X9	Y9	Z9	X10	Y10	Z10	X11	Y11	Z11	X12	Y12	Z12	X13	Y13	Z13	X14	Y14	Z14	X15	Y15	Z15	X16	Y16	Z16	X17	Y17	Z17	X18	Y18	Z18	X19	Y19	Z19	X20	Y20	Z20	X21	Y21	Z21	X22	Y22	Z22	X23	Y23	Z23	X24	Y24	Z24	X25	Y25	Z25	X26	Y26	Z26	X27	Y27	Z27	X28	Y28	Z28	X29	Y29	Z29	X30	Y30	Z30	X31	Y31	Z31	X32	Y32	Z32	X33	Y33	Z33	

18	15.114285714286	794.216591498046	1008.006874863840	521.935815241771	974.751439260906	1425.105580604700	321.467144933153	1091.408921541543	1348.267967831740	469.957303049219	1034.864608388300	1429.603705106586	650.939217501089	997.553672241777	1486.502559315784	476.224701409128	1024.049643099995	935.017526498618	622.079107995362	992.791561553384	952.317837192927	348.386491824647	1019.340091589490	722.567046577260	595.236860015709	915.911932795720	631.142276337847	660.195161089676	972.384892874327	565.764517901996	577.455536614442	953.643459917595	482.534816515934	581.741439957241	1075.590030361111	786.279579443863	387.919753824688	1048.378062829349	656.370555529148	302.251654333755	1150.392669873498	605.097509090570	372.421978344297	1184.800108678385	539.477688942970	366.347776296980	1167.938097393340	462.779325696345	355.384707313818	1104.390713090181	333.659544034148	297.839881380451	1186.443098207307	233.036503352898	357.514040806207	917.457749795462	397.544813252093	589.704658265337	838.803210873191	300.631521589682	653.008188918118	868.802393807954	203.056371784175	587.035430995951	722.355289008029	43.376189854606	556.896220269108	893.525590749578	96.048759788002	594.121058722635	804.606521348195	36.708362348697	632.643795959540	1013.387157280632	41.223095719870	623.827682872439	1103.468541244475	48.704827297926	387.436715130567	1182.102498578471	58.882591600709	312.295885724071	1247.056046527591	140.246121148601	338.708512634276	1383.716191599558	118.940038341956	320.566557377663	821.222432567571	1105.448257843200	232.347418843502	760.283638446541	855.289108531744	234.776943605444	1169.202041279926	1121.889427986145	778.191412804907	1419.890993765991	1092.156054999134	722.239909456393	
19	15.125714285714	795.247047839775	1006.569396063037	520.363446645269	974.857634396971	1424.043353229985	320.125925098644	1091.441853525253	1347.361181643769	468.706858728299	1034.377450724091	1428.504308857728	649.578261444561	997.329187625661	1485.309602488280	474.975786338399	1024.958251785409	933.903082630002	621.181070436688	994.222222061052	950.467719171926	347.288730226406	1018.571520952467	721.025303544077	594.611392262156	914.102656456984	630.361437099270	659.485647983946	969.890893884129	564.400227689798	576.874966150468	950.242537409942	481.169095658875	581.053482458586	1076.063636949237	783.017859204425	386.859080529003	1046.156397361486	652.748893188605	302.097840731020	1148.510623234515	601.210779064327	371.109027791663	1181.815605047732	535.935528058832	365.862256495613	1165.891177683759	459.484414479492	355.099023760265	1103.277359414760	329.312231656242	299.312994223062	1187.235328752686	230.112142856349	358.690057967420	913.039537886325	396.507452353160	589.252788519678	833.435708992858	300.571286444457	652.922993792890	862.148493104511	202.557327924212	586.928602853277	714.303691337120	43.535369461189	557.029012123319	885.585551187172	96.014487753578	594.243973884731	796.558634851690	36.672881534613	632.692508422122	1005.336321205214	40.982267025506	623.866515467854	1106.443295317792	45.954355247586	390.781124361816	1184.184583938158	55.899326327700	314.765719095661	1249.195283232010	137.246373790770	340.088850718334	1385.592855165287	116.034282350636	320.654284930899	815.334560020460	1108.226818165387	231.390025385477	750.655109287103	858.868520167913	235.635800808758	1171.645461846780	1122.324764635250	775.565154718655	1422.281135348015	1104.709450337032	716.874125793412	
20	15.137142857143	796.469022619360	1004.990633080722	518.533280822994	975.040040899027	1422.876470115555	318.625946355859	1091.517654112890	1346.435499763875	467.382248035935	1033.742526119109	1427.320624562788	648.122670722262	997.064608754430	1484.039593359099	473.580500059425	1026.008487832149	932.688811980812	620.206711885817	995.936596625028	948.486474324118	346.114420621842	1018.100963455463	719.427224223547	593.944372698890	912.570407450965	629.502820898794	658.659540057445	967.821085779008	562.925528112380	576.287946743464	947.235682863184	479.664445330315	580.335606825649	1076.955863709827	779.619379092204	385.558520859575	1043.995771603486	648.939636420094	302.130548650479	1146.902626936852	597.168256431520	369.701478261191	1178.804738349333	531.896463976507	365.397639651010	1163.485327570990	455.686555386869	354.875473762717	1100.941948921013	324.858367567316	301.115812245593	1186.306340800199	226.653655119335	360.060827971629	908.977333003593	395.356485916561	588.754344443539	828.281432878730	300.514751322767	652.793539543535	855.616795975134	202.024010022742	586.831395865502	706.264541828006	43.759253017521	557.195007501012	877.658682981050	95.982541829844	594.381900538233	788.527807981000	36.644615438565	632.753073590024	997.293626765698	40.707123301039	623.922676663535	1106.429571700991	43.605629976396	394.502835712111	1183.128283612760	52.743511604587	317.416902552449	1248.990896303754	133.287548003493	341.641981846796	1384.804868290855	110.876893409309	320.524652527982	810.270056870606	1110.630939324339	230.386041963459	742.117162813435	862.031988049789	236.398606270566	1173.532544260569	1122.404884327800	772.880060867854	1423.489921370538	1116.400135494771	711.632414919480	
21	15.148571428571	797.869993202778	1003.307636599019	516.469579928171	975.310190113275	1421.615306784677	316.961333748544	1091.654501314107	1345.499698230526	465.975345757556	1033.001508072514	1426.078261892410	646.568235948660	996.786078522001	1482.717327072499	472.024142580936	1027.173536537816	931.385062875527	619.143500303057	997.893600231374	946.433643310819	344.861775130785	1017.923946853574	717.787601162808	593.238638182516	911.314632323239	628.575541500415	657.707461737088	966.191753076041	561.350245324629	575.692004668062	944.643241847686	478.010087593828	579.582963826410	1078.202183891053	776.137056010740	384.025634713774	1041.942642509138	645.054944092321	302.303340174051	1145.543483263570	593.051532712222	368.286480261751	1175.802084208082	527.506993959647	365.036037838354	1160.820783223185	451.538912584728	354.760428214380	1097.708156967128	320.385036546079	303.075902984299	1183.965911273578	222.776865265834	361.573457849159	905.284790390919	394.097049251341	588.200857283512	823.345193494775	300.473279711597	652.599325649539	849.213836470298	201.473908282301	586.738650755621	698.241372033985	44.086594134098	557.396483348973	869.755454727255	95.962593128028	594.532799280483	780.519033377955	36.644219155565	632.830092531666	989.264400412060	40.399371642483	623.997366861604	1103.820457087532	41.633719057233	398.295179313091	1179.456180579907	49.514580872992	320.072677512972	1246.842220113765	128.544004053695	343.355477018360	1381.834689511254	103.794685071346	320.385043800200	806.092312428726	1112.565754802780	229.325777896025	734.678805737079	864.715712623643	237.025924348497	1174.848029422869	1122.116190453461	770.182042888622	1423.593808106776	1127.127540771580	706.555443847863	
